<svg width="279" height="71" viewBox="0 0 279 71" fill="none" xmlns="http://www.w3.org/2000/svg">
<path d="M16.176 47.768C13.1893 47.768 10.416 47.3627 7.856 46.552C5.296 45.6987 2.94933 44.376 0.816 42.584L4.72 36.376C6.384 37.8267 8.176 38.8933 10.096 39.576C12.0587 40.2587 14.1493 40.6 16.368 40.6C21.4027 40.6 23.92 38.808 23.92 35.224C23.92 33.8587 23.5573 32.8347 22.832 32.152C22.1493 31.4267 20.9547 30.8507 19.248 30.424L12.528 28.76C9.072 27.9067 6.512 26.5627 4.848 24.728C3.22667 22.8507 2.416 20.3547 2.416 17.24C2.416 13.3147 3.71733 10.2427 6.32 8.024C8.92267 5.76266 12.5707 4.632 17.264 4.632C22.3413 4.632 26.8427 6.01866 30.768 8.792L27.12 15.128C24.3893 12.9093 21.104 11.8 17.264 11.8C12.528 11.8 10.16 13.4853 10.16 16.856C10.16 18.0507 10.5013 19.0107 11.184 19.736C11.9093 20.4187 13.1253 20.9733 14.832 21.4L21.552 23.064C25.008 23.9173 27.5467 25.2827 29.168 27.16C30.832 28.9947 31.664 31.5547 31.664 34.84C31.664 38.8507 30.2987 42.008 27.568 44.312C24.88 46.616 21.0827 47.768 16.176 47.768ZM35.189 47V1.56H42.741V18.264C45.3863 16.6 48.245 15.768 51.317 15.768C54.901 15.768 57.653 16.792 59.573 18.84C61.493 20.8453 62.453 23.7253 62.453 27.48V47H54.901V28.632C54.901 26.456 54.4743 24.92 53.621 24.024C52.8103 23.128 51.381 22.68 49.333 22.68C48.1383 22.68 47.0077 22.8293 45.941 23.128C44.917 23.384 43.8503 23.8107 42.741 24.408V47H35.189ZM76.794 47V23.32H65.018V16.536H84.346V40.216H96.122V47H76.794ZM79.93 11.032C78.4793 11.032 77.2633 10.5413 76.282 9.56C75.3007 8.57866 74.81 7.36266 74.81 5.912C74.81 4.46133 75.3007 3.24533 76.282 2.264C77.2633 1.28266 78.4793 0.791996 79.93 0.791996C81.3807 0.791996 82.5967 1.28266 83.578 2.264C84.5593 3.24533 85.05 4.46133 85.05 5.912C85.05 7.36266 84.5593 8.57866 83.578 9.56C82.5967 10.5413 81.3807 11.032 79.93 11.032ZM107.519 47V23.32H98.623V16.536H107.519V12.504C107.519 8.70667 108.586 5.80533 110.719 3.8C112.895 1.79466 116.031 0.791996 120.127 0.791996C123.796 0.791996 127.167 1.624 130.239 3.288L128.319 9.688C126.058 8.36533 123.711 7.704 121.279 7.704C119.146 7.704 117.567 8.19467 116.543 9.176C115.562 10.1147 115.071 11.608 115.071 13.656V16.536H126.591V23.32H115.071V47H107.519ZM149.7 47.768C141.849 47.768 137.924 43.864 137.924 36.056V23.32H129.028V16.536H137.924V7.896L145.476 4.632V16.536H156.996V23.32H145.476V34.904C145.476 37.08 145.881 38.616 146.692 39.512C147.545 40.408 148.996 40.856 151.044 40.856C153.561 40.856 155.993 40.1307 158.34 38.68L160.26 45.08C157.188 46.872 153.668 47.768 149.7 47.768ZM191.689 35.416L196.233 35.352V37.976C195.721 37.8907 195.124 37.848 194.441 37.848C193.758 37.848 192.99 37.8907 192.137 37.976C192.137 41.2613 190.558 44.5893 187.401 47.96C184.244 51.3307 180.425 54.0613 175.945 56.152C171.508 58.2853 167.369 59.352 163.529 59.352C161.524 59.352 159.881 58.84 158.601 57.816C157.364 56.792 156.745 55.448 156.745 53.784C156.745 51.3093 158.388 48.728 161.673 46.04C164.958 43.352 168.798 41.1333 173.193 39.384C177.588 37.6347 181.556 36.6107 185.097 36.312C184.67 35.672 184.009 35.1173 183.113 34.648C182.217 34.1787 180.382 33.4533 177.609 32.472C174.836 31.448 172.873 30.3387 171.721 29.144C170.569 27.9067 169.993 26.1787 169.993 23.96C169.993 21.7413 171.188 19.2027 173.577 16.344C175.966 13.4853 178.782 11.096 182.025 9.176C185.31 7.21333 188.19 6.232 190.665 6.232C191.774 6.232 192.692 6.63733 193.417 7.448C194.142 8.216 194.505 9.176 194.505 10.328C194.505 12.2053 193.374 14.5733 191.113 17.432C188.852 20.248 186.334 22.4027 183.561 23.896L182.025 21.72C183.689 20.8667 185.14 19.544 186.377 17.752C187.657 15.9173 188.297 14.3387 188.297 13.016C188.297 11.6933 187.593 11.032 186.185 11.032C184.18 11.032 181.876 12.2907 179.273 14.808C176.713 17.2827 175.433 19.608 175.433 21.784C175.433 23.2773 175.817 24.4507 176.585 25.304C177.353 26.1573 179.294 27.224 182.409 28.504C185.524 29.7413 187.742 30.8507 189.065 31.832C190.388 32.7707 191.262 33.9653 191.689 35.416ZM163.145 52.12C163.145 54.168 164.809 55.192 168.137 55.192C169.972 55.192 172.34 54.5093 175.241 53.144C178.185 51.8213 180.766 49.944 182.985 47.512C185.246 45.1227 186.377 42.6693 186.377 40.152C186.377 39.8533 186.313 39.4053 186.185 38.808C180.34 39.3627 175.028 41.0053 170.249 43.736C165.513 46.4667 163.145 49.2613 163.145 52.12ZM223.844 42.968L224.036 44.632C223.865 44.76 221.881 45.528 218.084 46.936C217.572 49.752 216.911 52.5253 216.1 55.256C215.332 58.0293 214.543 60.12 213.732 61.528C212.964 62.9787 212.047 64.408 210.98 65.816C208.847 68.632 205.967 70.04 202.34 70.04C200.548 70.04 199.119 69.4853 198.052 68.376C196.985 67.2667 196.452 65.752 196.452 63.832C196.452 56.4507 202.639 50.52 215.012 46.04L218.468 33.88C214.799 39.384 211.492 42.776 208.548 44.056C207.097 44.7387 205.561 45.08 203.94 45.08C202.361 45.08 201.081 44.568 200.1 43.544C199.161 42.52 198.692 41.0267 198.692 39.064C198.692 37.1013 199.353 34.3707 200.676 30.872C202.041 27.3307 203.556 24.3653 205.22 21.976L208.356 23.32C208.228 23.448 207.631 24.5787 206.564 26.712C204.687 30.5947 203.748 33.4747 203.748 35.352C203.748 37.2293 204.111 38.488 204.836 39.128C205.561 39.768 206.628 40.088 208.036 40.088C209.444 40.088 211.023 39.256 212.772 37.592C214.564 35.8853 217.316 32.536 221.028 27.544L223.332 28.888C222.991 30.296 222.223 32.856 221.028 36.568C219.876 40.2373 219.087 43.0533 218.66 45.016L223.844 42.968ZM214.628 47.96C211.94 49.1973 209.572 50.6053 207.524 52.184C203.684 55.0853 201.764 57.9013 201.764 60.632C201.764 61.656 202.063 62.488 202.66 63.128C203.257 63.768 204.004 64.088 204.9 64.088C209.167 64.088 212.409 58.712 214.628 47.96ZM253.231 39.256L254.575 40.28C253.636 42.1573 252.335 43.736 250.671 45.016C249.05 46.296 247.578 46.936 246.255 46.936C244.932 46.936 243.887 46.552 243.119 45.784C242.351 45.016 241.967 44.056 241.967 42.904C241.967 41.752 242.692 39.7467 244.143 36.888C245.636 33.9867 246.383 31.8533 246.383 30.488C246.383 29.8907 246.127 29.3573 245.615 28.888C245.146 28.376 244.57 28.12 243.887 28.12C241.711 28.12 239.514 29.784 237.295 33.112C235.076 36.3973 232.602 41.1547 229.871 47.384L226.031 46.04C226.842 41.0907 227.994 36.2693 229.487 31.576C231.023 26.84 232.431 23.448 233.711 21.4L236.335 22.232C235.14 25.2613 233.626 30.488 231.791 37.912C237.679 27.8427 243.098 22.808 248.047 22.808C249.114 22.808 249.988 23.1707 250.671 23.896C251.396 24.6213 251.759 25.4747 251.759 26.456C251.759 27.4373 251.631 28.3333 251.375 29.144C251.119 29.912 250.308 31.7467 248.943 34.648C247.62 37.5067 246.959 39.2987 246.959 40.024C246.959 40.7493 247.172 41.3253 247.599 41.752C248.026 42.136 248.431 42.328 248.815 42.328C249.199 42.328 249.519 42.264 249.775 42.136C250.031 42.008 250.308 41.816 250.607 41.56C250.948 41.304 251.247 41.0693 251.503 40.856C251.759 40.6427 252.058 40.3653 252.399 40.024C252.783 39.64 253.06 39.384 253.231 39.256ZM273.446 37.912L274.982 39.192C273.958 41.5387 272.316 43.416 270.054 44.824C267.793 46.232 265.596 46.936 263.462 46.936C261.372 46.936 259.622 46.2747 258.214 44.952C256.849 43.6293 256.166 41.816 256.166 39.512C256.166 37.208 257.169 34.712 259.174 32.024C261.18 29.336 263.761 27.1173 266.918 25.368C270.118 23.6187 273.254 22.744 276.326 22.744C276.753 22.744 277.393 22.7867 278.246 22.872L278.054 25.368C273.361 25.5813 269.457 27.0107 266.342 29.656C263.27 32.3013 261.734 35.1173 261.734 38.104C261.734 39.3413 262.118 40.344 262.886 41.112C263.654 41.88 264.657 42.264 265.894 42.264C267.857 42.264 270.374 40.8133 273.446 37.912Z" fill="white"/>
</svg>
